<svg width="46" height="46" viewBox="0 0 46 46" fill="none" xmlns="http://www.w3.org/2000/svg">
<path d="M23 38.75C24.2427 38.75 25.25 39.7573 25.25 41V43.25C25.25 44.4927 24.2427 45.5 23 45.5C21.7573 45.5 20.75 44.4927 20.75 43.25V41C20.75 39.7573 21.7573 38.75 23 38.75ZM37.319 34.1371L38.91 35.728C39.7886 36.6067 39.7886 38.0311 38.91 38.91C38.0313 39.7886 36.6067 39.7886 35.728 38.91L34.1371 37.319C33.2584 36.4402 33.2584 35.0157 34.1371 34.1371C35.0157 33.2582 36.4404 33.2582 37.319 34.1371ZM8.68096 34.1371C9.55965 33.2582 10.9843 33.2582 11.863 34.1371C12.674 34.9481 12.7364 36.2244 12.0501 37.107L11.863 37.319L10.272 38.91C9.39328 39.7886 7.96865 39.7886 7.08998 38.91C6.27888 38.0989 6.21649 36.8226 6.9028 35.94L7.08998 35.728L8.68096 34.1371ZM5 20.75C6.24263 20.75 7.25 21.7573 7.25 23C7.25 24.1539 6.3814 25.1049 5.2624 25.2349L5 25.25H2.75C1.50737 25.25 0.5 24.2427 0.5 23C0.5 21.8461 1.3686 20.8951 2.4876 20.7651L2.75 20.75H5ZM43.25 20.75C44.4927 20.75 45.5 21.7573 45.5 23C45.5 24.2427 44.4927 25.25 43.25 25.25H41C39.7573 25.25 38.75 24.2427 38.75 23C38.75 21.7573 39.7573 20.75 41 20.75H43.25ZM7.09005 7.08998C7.90113 6.2789 9.17741 6.21651 10.0601 6.90281L10.272 7.08998L11.863 8.68098C12.7417 9.55965 12.7417 10.9843 11.863 11.863C11.0519 12.674 9.77565 12.7364 8.893 12.0501L8.68103 11.863L7.09005 10.272C6.21135 9.39328 6.21135 7.96865 7.09005 7.08998ZM38.91 7.09002C39.7886 7.96869 39.7886 9.39333 38.91 10.272L37.319 11.863C36.4402 12.7417 35.0157 12.7417 34.1371 11.863C33.2582 10.9843 33.2582 9.55969 34.1371 8.68101L35.728 7.09002C36.6067 6.21133 38.0311 6.21133 38.91 7.09002ZM23 0.5C24.2427 0.5 25.25 1.50737 25.25 2.75V5C25.25 6.24263 24.2427 7.25 23 7.25C21.7573 7.25 20.75 6.24263 20.75 5V2.75C20.75 1.50737 21.7573 0.5 23 0.5Z" fill="url(#paint0_linear_618_103)"/>
<defs>
<linearGradient id="paint0_linear_618_103" x1="0.218748" y1="0.218751" x2="45.7813" y2="45.7813" gradientUnits="userSpaceOnUse">
<stop offset="0.166667" stop-color="#FFE475"/>
<stop offset="0.798611" stop-color="#FFBF29"/>
</linearGradient>
</defs>
</svg>
