<svg width="36" height="36" viewBox="0 0 36 36" fill="none" xmlns="http://www.w3.org/2000/svg">
<g clip-path="url(#clip0_278_1859)">
<path d="M18 7.875C23.5919 7.875 28.125 12.4081 28.125 18C28.125 23.5919 23.5919 28.125 18 28.125C12.4081 28.125 7.875 23.5919 7.875 18C7.875 12.4081 12.4081 7.875 18 7.875Z" fill="url(#paint0_radial_278_1859)"/>
<path d="M18 29.8125C18.932 29.8125 19.6875 30.568 19.6875 31.5V33.1875C19.6875 34.1195 18.932 34.875 18 34.875C17.068 34.875 16.3125 34.1195 16.3125 33.1875V31.5C16.3125 30.568 17.068 29.8125 18 29.8125ZM28.7393 26.3528L29.9325 27.546C30.5915 28.205 30.5915 29.2733 29.9325 29.9325C29.2735 30.5915 28.205 30.5915 27.546 29.9325L26.3528 28.7393C25.6938 28.0801 25.6938 27.0118 26.3528 26.3528C27.0118 25.6937 28.0803 25.6937 28.7393 26.3528ZM7.26072 26.3528C7.91974 25.6937 8.98821 25.6937 9.64721 26.3528C10.2555 26.9611 10.3023 27.9183 9.78759 28.5803L9.64721 28.7393L8.45396 29.9325C7.79496 30.5915 6.72649 30.5915 6.06749 29.9325C5.45916 29.3242 5.41237 28.367 5.9271 27.705L6.06749 27.546L7.26072 26.3528ZM4.5 16.3125C5.43197 16.3125 6.1875 17.068 6.1875 18C6.1875 18.8654 5.53605 19.5787 4.6968 19.6761L4.5 19.6875H2.8125C1.88053 19.6875 1.125 18.932 1.125 18C1.125 17.1346 1.77645 16.4213 2.6157 16.3239L2.8125 16.3125H4.5ZM33.1875 16.3125C34.1195 16.3125 34.875 17.068 34.875 18C34.875 18.932 34.1195 19.6875 33.1875 19.6875H31.5C30.568 19.6875 29.8125 18.932 29.8125 18C29.8125 17.068 30.568 16.3125 31.5 16.3125H33.1875ZM6.06754 6.06749C6.67585 5.45918 7.63305 5.41238 8.29504 5.92711L8.45402 6.06749L9.64726 7.26073C10.3063 7.91974 10.3063 8.98821 9.64726 9.64721C9.03894 10.2555 8.08174 10.3023 7.41975 9.78759L7.26077 9.64721L6.06754 8.45396C5.40852 7.79496 5.40852 6.72649 6.06754 6.06749ZM29.9325 6.06752C30.5915 6.72652 30.5915 7.795 29.9325 8.454L28.7393 9.64725C28.0801 10.3062 27.0118 10.3062 26.3528 9.64725C25.6937 8.98823 25.6937 7.91977 26.3528 7.26075L27.546 6.06752C28.205 5.4085 29.2733 5.4085 29.9325 6.06752ZM18 1.125C18.932 1.125 19.6875 1.88053 19.6875 2.8125V4.5C19.6875 5.43197 18.932 6.1875 18 6.1875C17.068 6.1875 16.3125 5.43197 16.3125 4.5V2.8125C16.3125 1.88053 17.068 1.125 18 1.125Z" fill="url(#paint1_linear_278_1859)"/>
</g>
<defs>
<radialGradient id="paint0_radial_278_1859" cx="0" cy="0" r="1" gradientUnits="userSpaceOnUse" gradientTransform="translate(10.9688 10.4062) rotate(43.0203) scale(23.4644)">
<stop offset="0.193671" stop-color="#FFE475"/>
<stop offset="0.529275" stop-color="#FFB029"/>
<stop offset="0.780467" stop-color="#FF9100"/>
</radialGradient>
<linearGradient id="paint1_linear_278_1859" x1="0.914061" y1="0.914063" x2="35.0859" y2="35.0859" gradientUnits="userSpaceOnUse">
<stop offset="0.166667" stop-color="#FFE475"/>
<stop offset="0.798611" stop-color="#FFBF29"/>
</linearGradient>
<clipPath id="clip0_278_1859">
<rect width="36" height="36" fill="white"/>
</clipPath>
</defs>
</svg>
